<?xml version="1.0" encoding="UTF-8"?>
<svg width="262px" height="40px" viewBox="0 0 262 40" version="1.1" xmlns="http://www.w3.org/2000/svg" xmlns:xlink="http://www.w3.org/1999/xlink">
    <title>Group 2 Copy</title>
    <g id="Brand" stroke="none" stroke-width="1" fill="none" fill-rule="evenodd">
        <g id="Artboard" transform="translate(-371.000000, -361.000000)">
            <g id="Group-2-Copy" transform="translate(371.000000, 361.000000)">
                <path d="M58.4517045,30.4971591 L66.2215909,8.67897727 L60.7528409,8.67897727 L55.7244318,24.8863636 L55.4971591,24.8863636 L50.4829545,8.67897727 L45,8.67897727 L52.7698864,30.4971591 L58.4517045,30.4971591 Z M77.5369318,30.9232955 C79.6676136,30.9232955 81.516572,30.4545455 83.0838068,29.5170455 C84.6510417,28.5795455 85.8607955,27.265625 86.7130682,25.5752841 C87.5653409,23.8849432 87.9914773,21.9176136 87.9914773,19.6732955 C87.9914773,17.4195076 87.5653409,15.4474432 86.7130682,13.7571023 C85.8607955,12.0667614 84.6510417,10.7504735 83.0838068,9.80823864 C81.516572,8.86600379 79.6676136,8.39488636 77.5369318,8.39488636 C75.40625,8.39488636 73.5596591,8.86600379 71.9971591,9.80823864 C70.4346591,10.7504735 69.2249053,12.0667614 68.3678977,13.7571023 C67.5108902,15.4474432 67.0823864,17.4195076 67.0823864,19.6732955 C67.0823864,21.9176136 67.5108902,23.8849432 68.3678977,25.5752841 C69.2249053,27.265625 70.4346591,28.5795455 71.9971591,29.5170455 C73.5596591,30.4545455 75.40625,30.9232955 77.5369318,30.9232955 Z M77.5653409,26.8039773 C76.3910985,26.8039773 75.4133523,26.4867424 74.6321023,25.8522727 C73.8508523,25.217803 73.2660985,24.358428 72.8778409,23.2741477 C72.4895833,22.1898674 72.2954545,20.9848485 72.2954545,19.6590909 C72.2954545,18.3238636 72.4895833,17.1141098 72.8778409,16.0298295 C73.2660985,14.9455492 73.8508523,14.0814394 74.6321023,13.4375 C75.4133523,12.7935606 76.3910985,12.4715909 77.5653409,12.4715909 C78.7301136,12.4715909 79.6983902,12.7935606 80.4701705,13.4375 C81.2419508,14.0814394 81.8196023,14.9455492 82.203125,16.0298295 C82.5866477,17.1141098 82.7784091,18.3238636 82.7784091,19.6590909 C82.7784091,20.9848485 82.5866477,22.1898674 82.203125,23.2741477 C81.8196023,24.358428 81.2419508,25.217803 80.4701705,25.8522727 C79.6983902,26.4867424 78.7301136,26.8039773 77.5653409,26.8039773 Z M93.9232955,5.58238636 C94.7376894,5.58238636 95.4360795,5.31013258 96.0184659,4.765625 C96.6008523,4.22111742 96.8920455,3.56534091 96.8920455,2.79829545 C96.8920455,2.0217803 96.6008523,1.36126894 96.0184659,0.816761364 C95.4360795,0.272253788 94.7376894,0 93.9232955,0 C93.0994318,0 92.3963068,0.272253788 91.8139205,0.816761364 C91.2315341,1.36126894 90.9403409,2.0217803 90.9403409,2.79829545 C90.9403409,3.56534091 91.2315341,4.22111742 91.8139205,4.765625 C92.3963068,5.31013258 93.0994318,5.58238636 93.9232955,5.58238636 Z M96.4801136,30.4971591 L96.4801136,8.67897727 L91.3380682,8.67897727 L91.3380682,30.4971591 L96.4801136,30.4971591 Z M110.28125,30.9232955 C112.108902,30.9232955 113.699811,30.5871212 115.053977,29.9147727 C116.408144,29.2424242 117.47822,28.3143939 118.264205,27.1306818 C119.050189,25.9469697 119.504735,24.5833333 119.627841,23.0397727 L119.627841,23.0397727 L114.713068,23.0397727 C114.495265,24.2140152 113.991004,25.1231061 113.200284,25.7670455 C112.409564,26.4109848 111.450758,26.7329545 110.323864,26.7329545 C108.723485,26.7329545 107.442708,26.0984848 106.481534,24.8295455 C105.52036,23.5606061 105.039773,21.813447 105.039773,19.5880682 C105.039773,17.3816288 105.525095,15.6557765 106.495739,14.4105114 C107.466383,13.1652462 108.742424,12.5426136 110.323864,12.5426136 C111.564394,12.5426136 112.556345,12.8953598 113.299716,13.6008523 C114.043087,14.3063447 114.514205,15.1846591 114.713068,16.2357955 L114.713068,16.2357955 L119.627841,16.2357955 C119.514205,14.6543561 119.050189,13.2765152 118.235795,12.1022727 C117.421402,10.9280303 116.332386,10.016572 114.96875,9.36789773 C113.605114,8.71922348 112.033144,8.39488636 110.252841,8.39488636 C108.122159,8.39488636 106.277936,8.87310606 104.72017,9.82954545 C103.162405,10.7859848 101.957386,12.109375 101.105114,13.7997159 C100.252841,15.4900568 99.8267045,17.4479167 99.8267045,19.6732955 C99.8267045,21.8702652 100.245739,23.8162879 101.083807,25.5113636 C101.921875,27.2064394 103.122159,28.532197 104.684659,29.4886364 C106.247159,30.4450758 108.112689,30.9232955 110.28125,30.9232955 Z M132.519886,30.9232955 C135.067235,30.9232955 137.171875,30.3503788 138.833807,29.2045455 C140.495739,28.0587121 141.553977,26.5388258 142.008523,24.6448864 L142.008523,24.6448864 L137.207386,24.1051136 C136.857008,25.0236742 136.276989,25.7220644 135.46733,26.2002841 C134.65767,26.6785038 133.698864,26.9176136 132.590909,26.9176136 C130.924242,26.9176136 129.586648,26.3967803 128.578125,25.3551136 C127.569602,24.313447 127.051136,22.8598485 127.022727,20.9943182 L127.022727,20.9943182 L142.221591,20.9943182 L142.221591,19.4176136 C142.221591,16.8607955 141.764678,14.7703598 140.850852,13.1463068 C139.937027,11.5222538 138.722538,10.3243371 137.207386,9.55255682 C135.692235,8.78077652 134.039773,8.39488636 132.25,8.39488636 C130.166667,8.39488636 128.350852,8.87073864 126.802557,9.82244318 C125.254261,10.7741477 124.053977,12.0999053 123.201705,13.7997159 C122.349432,15.4995265 121.923295,17.4715909 121.923295,19.7159091 C121.923295,21.9981061 122.349432,23.9772727 123.201705,25.6534091 C124.053977,27.3295455 125.273201,28.6268939 126.859375,29.5454545 C128.445549,30.4640152 130.332386,30.9232955 132.519886,30.9232955 Z M137.292614,17.5284091 L127.036932,17.5284091 C127.112689,16.1363636 127.628788,14.9337121 128.585227,13.9204545 C129.541667,12.907197 130.786932,12.4005682 132.321023,12.4005682 C133.798295,12.4005682 134.993845,12.8835227 135.90767,13.8494318 C136.821496,14.8153409 137.283144,16.0416667 137.292614,17.5284091 L137.292614,17.5284091 Z M157.400568,30.8806818 C159.114583,30.8806818 160.648674,30.4403409 162.002841,29.5596591 C163.357008,28.6789773 164.427083,27.4005682 165.213068,25.7244318 C165.999053,24.0482955 166.392045,22.0123106 166.392045,19.6164773 C166.392045,17.1922348 165.991951,15.1467803 165.191761,13.4801136 C164.391572,11.813447 163.312027,10.5492424 161.953125,9.6875 C160.594223,8.82575758 159.07197,8.39488636 157.386364,8.39488636 C156.107955,8.39488636 155.054451,8.61032197 154.225852,9.04119318 C153.397254,9.47206439 152.743845,9.98816288 152.265625,10.5894886 C151.787405,11.1908144 151.41572,11.7566288 151.150568,12.2869318 L151.150568,12.2869318 L150.9375,12.2869318 L150.9375,1.40625 L145.795455,1.40625 L145.795455,30.4971591 L150.852273,30.4971591 L150.852273,27.0596591 L151.150568,27.0596591 C151.425189,27.5899621 151.81108,28.1510417 152.308239,28.7428977 C152.805398,29.3347538 153.465909,29.8390152 154.289773,30.2556818 C155.113636,30.6723485 156.150568,30.8806818 157.400568,30.8806818 Z M155.965909,26.6619318 C154.327652,26.6619318 153.063447,26.0108902 152.173295,24.7088068 C151.283144,23.4067235 150.838068,21.6998106 150.838068,19.5880682 C150.838068,17.4668561 151.278409,15.7741477 152.159091,14.5099432 C153.039773,13.2457386 154.308712,12.6136364 155.965909,12.6136364 C157.679924,12.6136364 158.972538,13.2670455 159.84375,14.5738636 C160.714962,15.8806818 161.150568,17.5520833 161.150568,19.5880682 C161.150568,21.6335227 160.710227,23.3238636 159.829545,24.6590909 C158.948864,25.9943182 157.660985,26.6619318 155.965909,26.6619318 Z M174.923295,30.4971591 L174.923295,17.6704545 C174.923295,16.2878788 175.389678,15.1538826 176.322443,14.2684659 C177.255208,13.3830492 178.427083,12.9403409 179.838068,12.9403409 C180.273674,12.9403409 180.725852,12.9711174 181.194602,13.0326705 C181.663352,13.0942235 182.006629,13.1628788 182.224432,13.2386364 L182.224432,13.2386364 L182.224432,8.50852273 C181.987689,8.46117424 181.691761,8.42566288 181.336648,8.40198864 C180.981534,8.37831439 180.661932,8.36647727 180.377841,8.36647727 C179.127841,8.36647727 178.017519,8.70738636 177.046875,9.38920455 C176.076231,10.0710227 175.392045,11.0464015 174.994318,12.3153409 L174.994318,12.3153409 L174.767045,12.3153409 L174.767045,8.67897727 L169.78125,8.67897727 L169.78125,30.4971591 L174.923295,30.4971591 Z M187.232955,5.58238636 C188.047348,5.58238636 188.745739,5.31013258 189.328125,4.765625 C189.910511,4.22111742 190.201705,3.56534091 190.201705,2.79829545 C190.201705,2.0217803 189.910511,1.36126894 189.328125,0.816761364 C188.745739,0.272253788 188.047348,0 187.232955,0 C186.409091,0 185.705966,0.272253788 185.12358,0.816761364 C184.541193,1.36126894 184.25,2.0217803 184.25,2.79829545 C184.25,3.56534091 184.541193,4.22111742 185.12358,4.765625 C185.705966,5.31013258 186.409091,5.58238636 187.232955,5.58238636 Z M189.789773,30.4971591 L189.789773,8.67897727 L184.647727,8.67897727 L184.647727,30.4971591 L189.789773,30.4971591 Z M202.170455,30.8806818 C203.420455,30.8806818 204.457386,30.6723485 205.28125,30.2556818 C206.105114,29.8390152 206.767992,29.3347538 207.269886,28.7428977 C207.77178,28.1510417 208.155303,27.5899621 208.420455,27.0596591 L208.420455,27.0596591 L208.732955,27.0596591 L208.732955,30.4971591 L213.789773,30.4971591 L213.789773,1.40625 L208.633523,1.40625 L208.633523,12.2869318 L208.420455,12.2869318 C208.164773,11.7566288 207.793087,11.1908144 207.305398,10.5894886 C206.817708,9.98816288 206.164299,9.47206439 205.34517,9.04119318 C204.526042,8.61032197 203.472538,8.39488636 202.184659,8.39488636 C200.508523,8.39488636 198.988636,8.82575758 197.625,9.6875 C196.261364,10.5492424 195.179451,11.813447 194.379261,13.4801136 C193.579072,15.1467803 193.178977,17.1922348 193.178977,19.6164773 C193.178977,22.0123106 193.57197,24.0482955 194.357955,25.7244318 C195.143939,27.4005682 196.214015,28.6789773 197.568182,29.5596591 C198.922348,30.4403409 200.456439,30.8806818 202.170455,30.8806818 Z M203.605114,26.6619318 C201.910038,26.6619318 200.622159,25.9943182 199.741477,24.6590909 C198.860795,23.3238636 198.420455,21.6335227 198.420455,19.5880682 C198.420455,17.5520833 198.856061,15.8806818 199.727273,14.5738636 C200.598485,13.2670455 201.891098,12.6136364 203.605114,12.6136364 C205.262311,12.6136364 206.53125,13.2457386 207.411932,14.5099432 C208.292614,15.7741477 208.732955,17.4668561 208.732955,19.5880682 C208.732955,21.6998106 208.287879,23.4067235 207.397727,24.7088068 C206.507576,26.0108902 205.243371,26.6619318 203.605114,26.6619318 Z M227.775568,39.0482955 C229.745265,39.0482955 231.499527,38.7476326 233.038352,38.1463068 C234.577178,37.5449811 235.791667,36.6358902 236.681818,35.4190341 C237.57197,34.202178 238.017045,32.6799242 238.017045,30.8522727 L238.017045,30.8522727 L238.017045,8.67897727 L232.946023,8.67897727 L232.946023,12.2869318 L232.661932,12.2869318 C232.40625,11.7566288 232.034564,11.1908144 231.546875,10.5894886 C231.059186,9.98816288 230.401042,9.47206439 229.572443,9.04119318 C228.743845,8.61032197 227.685606,8.39488636 226.397727,8.39488636 C224.721591,8.39488636 223.201705,8.82339015 221.838068,9.68039773 C220.474432,10.5374053 219.392519,11.7921402 218.59233,13.4446023 C217.79214,15.0970644 217.392045,17.1212121 217.392045,19.5170455 C217.392045,21.8844697 217.79214,23.8589015 218.59233,25.4403409 C219.392519,27.0217803 220.472064,28.2078598 221.830966,28.9985795 C223.189867,29.7892992 224.707386,30.1846591 226.383523,30.1846591 C227.633523,30.1846591 228.672822,29.9952652 229.50142,29.6164773 C230.330019,29.2376894 230.997633,28.7689394 231.504261,28.2102273 C232.01089,27.6515152 232.39678,27.1070076 232.661932,26.5767045 L232.661932,26.5767045 L232.917614,26.5767045 L232.917614,30.7102273 C232.917614,32.2727273 232.441761,33.4043561 231.490057,34.1051136 C230.538352,34.8058712 229.328598,35.15625 227.860795,35.15625 C226.317235,35.15625 225.161932,34.8626894 224.394886,34.2755682 C223.627841,33.688447 223.088068,33.0965909 222.775568,32.5 L222.775568,32.5 L218.144886,33.6221591 C218.618371,35.1089015 219.648201,36.3849432 221.234375,37.4502841 C222.820549,38.515625 225.000947,39.0482955 227.775568,39.0482955 Z M227.818182,26.1505682 C226.123106,26.1505682 224.835227,25.5421402 223.954545,24.3252841 C223.073864,23.108428 222.633523,21.4962121 222.633523,19.4886364 C222.633523,17.5094697 223.069129,15.8688447 223.940341,14.5667614 C224.811553,13.264678 226.104167,12.6136364 227.818182,12.6136364 C229.475379,12.6136364 230.744318,13.2433712 231.625,14.5028409 C232.505682,15.7623106 232.946023,17.4242424 232.946023,19.4886364 C232.946023,21.5719697 232.500947,23.203125 231.610795,24.3821023 C230.720644,25.5610795 229.456439,26.1505682 227.818182,26.1505682 Z M251.960227,30.9232955 C254.507576,30.9232955 256.612216,30.3503788 258.274148,29.2045455 C259.93608,28.0587121 260.994318,26.5388258 261.448864,24.6448864 L261.448864,24.6448864 L256.647727,24.1051136 C256.297348,25.0236742 255.71733,25.7220644 254.90767,26.2002841 C254.098011,26.6785038 253.139205,26.9176136 252.03125,26.9176136 C250.364583,26.9176136 249.026989,26.3967803 248.018466,25.3551136 C247.009943,24.313447 246.491477,22.8598485 246.463068,20.9943182 L246.463068,20.9943182 L261.661932,20.9943182 L261.661932,19.4176136 C261.661932,16.8607955 261.205019,14.7703598 260.291193,13.1463068 C259.377367,11.5222538 258.162879,10.3243371 256.647727,9.55255682 C255.132576,8.78077652 253.480114,8.39488636 251.690341,8.39488636 C249.607008,8.39488636 247.791193,8.87073864 246.242898,9.82244318 C244.694602,10.7741477 243.494318,12.0999053 242.642045,13.7997159 C241.789773,15.4995265 241.363636,17.4715909 241.363636,19.7159091 C241.363636,21.9981061 241.789773,23.9772727 242.642045,25.6534091 C243.494318,27.3295455 244.713542,28.6268939 246.299716,29.5454545 C247.88589,30.4640152 249.772727,30.9232955 251.960227,30.9232955 Z M256.732955,17.5284091 L246.477273,17.5284091 C246.55303,16.1363636 247.069129,14.9337121 248.025568,13.9204545 C248.982008,12.907197 250.227273,12.4005682 251.761364,12.4005682 C253.238636,12.4005682 254.434186,12.8835227 255.348011,13.8494318 C256.261837,14.8153409 256.723485,16.0416667 256.732955,17.5284091 L256.732955,17.5284091 Z" id="voicebridge" fill="#FFFFFF" fill-rule="nonzero"></path>
                <polygon id="Path-3" fill="#007AFF" points="-9.05941988e-14 4 10.35 4 20.7 35.5 10.35 35.5"></polygon>
                <polygon id="Path-3-Copy-2" fill="#007AFF" transform="translate(25.650000, 11.650000) scale(-1, 1) translate(-25.650000, -11.650000) " points="15.3 4 25.65 4 36 19.3 25.65 19.3"></polygon>
                <polygon id="Path-3-Copy-8" fill="#007AFF" transform="translate(25.650000, 27.400000) scale(1, -1) translate(-25.650000, -27.400000) " points="15.3 19.3 25.65 19.3 36 35.5 25.65 35.5"></polygon>
            </g>
        </g>
    </g>
</svg>