<?xml version="1.0" encoding="UTF-8"?>
<svg width="267px" height="36px" viewBox="0 0 267 36" version="1.1" xmlns="http://www.w3.org/2000/svg" xmlns:xlink="http://www.w3.org/1999/xlink">
    <title>Group 2</title>
    <g id="Page-1" stroke="none" stroke-width="1" fill="none" fill-rule="evenodd">
        <g id="Artboard" transform="translate(-66.000000, -308.000000)">
            <g id="Group-2" transform="translate(66.000000, 308.000000)">
                <g id="Group-Copy" fill="#E54D2E">
                    <polygon id="Path-3" points="-2.84217094e-14 5.32907052e-14 11.5748631 5.32907052e-14 23.1497261 35.1596346 11.5748631 35.1596346"></polygon>
                    <polygon id="Path-3-Copy-2" transform="translate(23.574863, 17.579817) scale(-1, 1) translate(-23.574863, -17.579817) " points="12 4.97379915e-14 23.5748631 4.97379915e-14 35.1497261 35.1596346 23.5748631 35.1596346"></polygon>
                    <polygon id="Path-3-Copy" fill-opacity="0.6" points="23 4.97379915e-14 34.5748631 4.97379915e-14 46.1497261 35.1596346 34.5748631 35.1596346"></polygon>
                </g>
                <path d="M68.36,28 L76.08,7.96 L71.28,7.96 L66.04,22.96 L60.84,7.96 L56,7.96 L63.52,28 L68.36,28 Z M86.84,28.48 C92.64,28.48 96.48,24.2 96.48,18.04 C96.48,11.84 92.64,7.52 86.84,7.52 C81.04,7.52 77.16,11.84 77.16,18.04 C77.16,24.2 81.04,28.48 86.84,28.48 Z M86.84,24.68 C83.68,24.68 81.8,22.2 81.8,18.04 C81.8,13.84 83.68,11.32 86.84,11.32 C89.96,11.32 91.84,13.84 91.84,18.04 C91.84,22.2 89.96,24.68 86.84,24.68 Z M105.48,5.08 L105.48,-1.13686838e-13 L100.12,-1.13686838e-13 L100.12,5.08 L105.48,5.08 Z M105.04,28 L105.04,7.96 L100.48,7.96 L100.48,28 L105.04,28 Z M118.56,28.48 C123.68,28.48 127.12,25.16 127.64,20.48 L123.08,20.48 C122.72,22.8 121.4,24.68 118.68,24.68 C115.68,24.68 113.68,22.32 113.68,18 C113.68,13.76 115.6,11.32 118.6,11.32 C121.28,11.32 122.8,13.04 123.08,15.24 L127.68,15.24 C127.24,10.76 123.8,7.52 118.64,7.52 C112.84,7.52 109.04,11.84 109.04,18.04 C109.04,24.24 112.84,28.48 118.56,28.48 Z M139.96,28.48 C145,28.48 148.12,25.6 148.88,21.84 L144.4,21.84 C143.84,23.6 142.32,24.72 140.04,24.72 C136.92,24.72 134.88,22.44 134.64,18.56 L149,18.56 C149.04,18 149.04,17.68 149.04,17.48 C149.04,11.52 145.48,7.52 139.8,7.52 C134,7.52 130.08,11.76 130.08,18.04 C130.08,24.32 134,28.48 139.96,28.48 Z M144.24,15.08 L135,15.08 C135.44,12.76 137.36,11.12 139.8,11.12 C142.24,11.12 144,12.6 144.24,15.08 Z M164.44,28.4 C169.16,28.4 171.84,24.08 171.84,17.92 C171.84,11.84 169.2,7.52 164.52,7.52 C161.88,7.52 159.36,9.12 157.64,11.96 L157.64,-1.13686838e-13 L153.08,-1.13686838e-13 L153.08,28 L157.6,28 L157.6,23.92 C159.28,26.76 161.76,28.4 164.44,28.4 Z M163.12,24.48 C160.84,24.48 157.52,22.04 157.52,17.96 C157.52,13.88 160.96,11.44 163.24,11.44 C165.64,11.44 167.24,13.64 167.24,17.92 C167.24,22.28 165.6,24.48 163.12,24.48 Z M180.52,28 L180.52,18.28 C180.52,14.48 182.44,11.8 184.52,11.8 C185.8,11.8 186.44,12.76 186.44,14.48 L186.44,15.2 L190.4,15.2 L190.4,13.84 C190.4,10.4 189.4,7.52 186.28,7.52 C183.56,7.52 181.6,9.88 180.48,12.68 L180.48,7.96 L175.96,7.96 L175.96,28 L180.52,28 Z M198.68,5.08 L198.68,-1.13686838e-13 L193.32,-1.13686838e-13 L193.32,5.08 L198.68,5.08 Z M198.24,28 L198.24,7.96 L193.68,7.96 L193.68,28 L198.24,28 Z M209.76,28.4 C212.52,28.4 214.96,26.72 216.64,23.84 L216.64,28 L221.12,28 L221.12,-1.13686838e-13 L216.56,-1.13686838e-13 L216.56,11.92 C214.84,9.08 212.32,7.52 209.72,7.52 C205.04,7.52 202.36,11.84 202.36,17.92 C202.36,24.08 205.04,28.4 209.76,28.4 Z M211.12,24.48 C208.64,24.48 207,22.28 207,17.92 C207,13.64 208.56,11.44 211,11.44 C213.24,11.44 216.68,13.88 216.68,17.96 C216.68,22.04 213.4,24.48 211.12,24.48 Z M234.64,35.28 C240.64,35.28 244.12,32.2 244.12,26.48 L244.12,7.96 L239.6,7.96 L239.6,11.96 C237.88,9.08 235.4,7.52 232.72,7.52 C228.32,7.52 225.24,11.76 225.24,17.68 C225.24,23.48 228.32,27.64 232.8,27.64 C235.56,27.64 237.88,26 239.56,23.32 L239.56,26.88 C239.56,30.32 237.44,31.64 234.56,31.64 C231.92,31.64 230.52,30.52 230.08,29 L225.48,29 C226.04,32.84 229.36,35.28 234.64,35.28 Z M234.16,23.84 C231.68,23.84 229.8,21.64 229.8,17.64 C229.8,13.6 231.6,11.44 234.04,11.44 C236.28,11.44 239.68,13.84 239.68,17.68 C239.68,21.36 236.4,23.84 234.16,23.84 Z M257.92,28.48 C262.96,28.48 266.08,25.6 266.84,21.84 L262.36,21.84 C261.8,23.6 260.28,24.72 258,24.72 C254.88,24.72 252.84,22.44 252.6,18.56 L266.96,18.56 C267,18 267,17.68 267,17.48 C267,11.52 263.44,7.52 257.76,7.52 C251.96,7.52 248.04,11.76 248.04,18.04 C248.04,24.32 251.96,28.48 257.92,28.48 Z M262.2,15.08 L252.96,15.08 C253.4,12.76 255.32,11.12 257.76,11.12 C260.2,11.12 261.96,12.6 262.2,15.08 Z" id="voicebridge" fill="#000000" fill-rule="nonzero"></path>
            </g>
        </g>
    </g>
</svg>